<svg width="22" height="26" viewBox="0 0 22 26" fill="none" xmlns="http://www.w3.org/2000/svg">
<path d="M7.49935 14.1663H14.4993M7.49935 18.833H10.9993M1.66602 3.66634V22.333C1.66602 22.9518 1.91185 23.5453 2.34943 23.9829C2.78702 24.4205 3.38051 24.6663 3.99935 24.6663H17.9993C18.6182 24.6663 19.2117 24.4205 19.6493 23.9829C20.0868 23.5453 20.3327 22.9518 20.3327 22.333V8.73201C20.3326 8.42116 20.2705 8.11346 20.1499 7.82696C20.0293 7.54047 19.8526 7.28096 19.6303 7.06368L14.4503 1.99801C14.0144 1.57178 13.429 1.33308 12.8193 1.33301H3.99935C3.38051 1.33301 2.78702 1.57884 2.34943 2.01643C1.91185 2.45401 1.66602 3.0475 1.66602 3.66634V3.66634Z" stroke="white" stroke-width="2" stroke-linecap="round" stroke-linejoin="round"/>
<path d="M13.332 1.33301V5.99967C13.332 6.61851 13.5779 7.21201 14.0154 7.64959C14.453 8.08718 15.0465 8.33301 15.6654 8.33301H20.332" stroke="white" stroke-width="2" stroke-linejoin="round"/>
</svg>
