<svg width="28" height="28" viewBox="0 0 28 28" fill="none" xmlns="http://www.w3.org/2000/svg">
<path d="M20.9995 21.84C22.4774 21.9608 23.9642 21.7704 25.364 21.2812C25.4175 20.6225 25.2833 19.9621 24.9771 19.3764C24.6709 18.7908 24.2051 18.3038 23.6337 17.9718C23.0622 17.6398 22.4085 17.4764 21.748 17.5005C21.0876 17.5246 20.4475 17.7351 19.9017 18.1078M20.9984 21.8388L20.9995 21.875C20.9995 22.1375 20.9855 22.3965 20.9564 22.652C18.8393 23.8666 16.4403 24.5039 13.9995 24.5C11.4679 24.5 9.09137 23.828 7.0427 22.652C7.01271 22.382 6.99829 22.1105 6.99954 21.8388M20.9995 21.8388C20.995 20.5166 20.6142 19.2229 19.9017 18.109M19.9017 18.109C19.2693 17.1171 18.3968 16.3007 17.3652 15.7354C16.3335 15.1701 15.1759 14.8742 13.9995 14.875C12.8233 14.8744 11.666 15.1704 10.6346 15.7357C9.60311 16.301 8.73087 17.1172 8.09853 18.109M8.09853 18.109C7.55278 17.7367 6.91278 17.5264 6.25254 17.5025C5.5923 17.4786 4.93878 17.6421 4.36754 17.974C3.7963 18.3059 3.33067 18.7928 3.0245 19.3782C2.71833 19.9637 2.58411 20.6238 2.63737 21.2823C4.03609 21.7743 5.52327 21.964 7.0007 21.8388M8.09737 18.109C7.38526 19.223 7.00489 20.5167 7.0007 21.8388M17.4995 7.875C17.4995 8.80326 17.1308 9.6935 16.4744 10.3499C15.818 11.0063 14.9278 11.375 13.9995 11.375C13.0713 11.375 12.181 11.0063 11.5247 10.3499C10.8683 9.6935 10.4995 8.80326 10.4995 7.875C10.4995 6.94674 10.8683 6.0565 11.5247 5.40013C12.181 4.74375 13.0713 4.375 13.9995 4.375C14.9278 4.375 15.818 4.74375 16.4744 5.40013C17.1308 6.0565 17.4995 6.94674 17.4995 7.875V7.875ZM24.4995 11.375C24.4995 11.7197 24.4316 12.0611 24.2997 12.3795C24.1678 12.698 23.9744 12.9874 23.7307 13.2312C23.4869 13.4749 23.1976 13.6683 22.8791 13.8002C22.5606 13.9321 22.2193 14 21.8745 14C21.5298 14 21.1885 13.9321 20.87 13.8002C20.5515 13.6683 20.2621 13.4749 20.0184 13.2312C19.7746 12.9874 19.5813 12.698 19.4493 12.3795C19.3174 12.0611 19.2495 11.7197 19.2495 11.375C19.2495 10.6788 19.5261 10.0111 20.0184 9.51884C20.5107 9.02656 21.1783 8.75 21.8745 8.75C22.5707 8.75 23.2384 9.02656 23.7307 9.51884C24.223 10.0111 24.4995 10.6788 24.4995 11.375V11.375ZM8.74953 11.375C8.74953 11.7197 8.68164 12.0611 8.54972 12.3795C8.4178 12.698 8.22444 12.9874 7.98069 13.2312C7.73694 13.4749 7.44756 13.6683 7.12908 13.8002C6.8106 13.9321 6.46925 14 6.12454 14C5.77982 14 5.43847 13.9321 5.11999 13.8002C4.80151 13.6683 4.51213 13.4749 4.26838 13.2312C4.02463 12.9874 3.83127 12.698 3.69935 12.3795C3.56743 12.0611 3.49954 11.7197 3.49954 11.375C3.49954 10.6788 3.7761 10.0111 4.26838 9.51884C4.76066 9.02656 5.42834 8.75 6.12454 8.75C6.82073 8.75 7.48841 9.02656 7.98069 9.51884C8.47297 10.0111 8.74953 10.6788 8.74953 11.375V11.375Z" stroke="white" stroke-width="1.5" stroke-linecap="round" stroke-linejoin="round"/>
</svg>
