<svg width="28" height="28" viewBox="0 0 28 28" fill="none" xmlns="http://www.w3.org/2000/svg">
<path d="M14.8279 2.67127C14.7195 2.56192 14.5904 2.47513 14.4483 2.4159C14.3061 2.35667 14.1536 2.32617 13.9996 2.32617C13.8456 2.32617 13.6931 2.35667 13.5509 2.4159C13.4088 2.47513 13.2797 2.56192 13.1713 2.67127L2.67127 13.1713C2.56192 13.2797 2.47513 13.4088 2.4159 13.5509C2.35667 13.6931 2.32617 13.8456 2.32617 13.9996C2.32617 14.1536 2.35667 14.3061 2.4159 14.4483C2.47513 14.5904 2.56192 14.7195 2.67127 14.8279C2.78028 14.9361 2.90957 15.0216 3.05171 15.0797C3.19386 15.1377 3.34606 15.1672 3.4996 15.1663H4.66627V23.3329C4.66627 23.9518 4.9121 24.5453 5.34969 24.9829C5.78727 25.4204 6.38076 25.6663 6.9996 25.6663H20.9996C21.6184 25.6663 22.2119 25.4204 22.6495 24.9829C23.0871 24.5453 23.3329 23.9518 23.3329 23.3329V15.1663H24.4996C24.809 15.1663 25.1058 15.0434 25.3246 14.8246C25.5434 14.6058 25.6663 14.309 25.6663 13.9996C25.6672 13.8461 25.6377 13.6939 25.5797 13.5517C25.5216 13.4096 25.4361 13.2803 25.3279 13.1713L14.8279 2.67127ZM6.9996 23.3329V12.1446L13.9996 5.1446L20.9996 12.1446V23.3329H6.9996Z" fill="white"/>
</svg>
