<svg width="2741" height="1041" viewBox="0 0 2741 1041" fill="none" xmlns="http://www.w3.org/2000/svg">
<path d="M0.324219 226C0.324219 202.888 6.02083 181.811 17.4141 162.768C28.8073 143.725 44.0254 128.507 63.0684 117.113C82.1113 105.72 103.189 100.023 126.301 100.023V148.852C105.142 148.852 86.9941 156.42 71.8574 171.557C56.7207 186.693 49.1523 204.841 49.1523 226V350.756H0.324219V226ZM291.926 98.8027C314.875 98.8027 335.871 104.418 354.914 115.648C373.957 126.879 389.094 141.934 400.324 160.814C411.555 179.532 417.414 200.528 417.902 223.803V351.244H369.074V324.389C358.332 332.689 346.369 339.2 333.186 343.92C320.165 348.477 306.411 350.756 291.926 350.756C268.814 350.756 247.655 345.141 228.449 333.91C209.406 322.517 194.188 307.299 182.795 288.256C171.564 269.213 165.949 248.054 165.949 224.779C165.949 201.667 171.564 180.59 182.795 161.547C194.188 142.504 209.406 127.286 228.449 115.893C247.655 104.499 268.814 98.8027 291.926 98.8027ZM291.926 301.928C313.247 301.928 331.395 294.441 346.369 279.467C361.506 264.33 369.074 246.101 369.074 224.779C369.074 203.62 361.506 185.473 346.369 170.336C331.395 155.199 313.247 147.631 291.926 147.631C270.604 147.631 252.375 155.199 237.238 170.336C222.264 185.473 214.777 203.62 214.777 224.779C214.777 246.101 222.264 264.33 237.238 279.467C252.375 294.441 270.604 301.928 291.926 301.928ZM709.504 224.779C709.504 247.729 703.97 268.643 692.902 287.523C681.835 306.404 667.023 321.54 648.469 332.934L672.883 363.451L634.797 393.969L599.641 349.779C594.27 350.43 588.898 350.756 583.527 350.756C560.415 350.756 539.338 345.141 520.295 333.91C501.252 322.517 486.034 307.299 474.641 288.256C463.247 269.213 457.551 248.054 457.551 224.779C457.551 201.667 463.247 180.59 474.641 161.547C486.034 142.504 501.252 127.286 520.295 115.893C539.338 104.499 560.415 98.8027 583.527 98.8027C606.639 98.8027 627.717 104.499 646.76 115.893C665.965 127.286 681.184 142.504 692.414 161.547C703.807 180.59 709.504 201.667 709.504 224.779ZM617.463 294.115C630.484 287.605 640.9 278.246 648.713 266.039C656.688 253.832 660.676 240.079 660.676 224.779C660.676 203.62 653.107 185.473 637.971 170.336C622.997 155.199 604.849 147.631 583.527 147.631C562.368 147.631 544.221 155.199 529.084 170.336C513.947 185.473 506.379 203.62 506.379 224.779C506.379 245.775 513.54 263.679 527.863 278.49C542.349 293.139 560.334 300.951 581.818 301.928L607.453 281.42L617.463 294.115ZM875.129 98.8027C898.078 98.8027 919.074 104.418 938.117 115.648C957.16 126.879 972.297 141.934 983.527 160.814C994.758 179.532 1000.62 200.528 1001.11 223.803V351.244H952.277V324.389C941.535 332.689 929.572 339.2 916.389 343.92C903.368 348.477 889.615 350.756 875.129 350.756C852.017 350.756 830.858 345.141 811.652 333.91C792.609 322.517 777.391 307.299 765.998 288.256C754.768 269.213 749.152 248.054 749.152 224.779C749.152 201.667 754.768 180.59 765.998 161.547C777.391 142.504 792.609 127.286 811.652 115.893C830.858 104.499 852.017 98.8027 875.129 98.8027ZM875.129 301.928C896.451 301.928 914.598 294.441 929.572 279.467C944.709 264.33 952.277 246.101 952.277 224.779C952.277 203.62 944.709 185.473 929.572 170.336C914.598 155.199 896.451 147.631 875.129 147.631C853.807 147.631 835.578 155.199 820.441 170.336C805.467 185.473 797.98 203.62 797.98 224.779C797.98 246.101 805.467 264.33 820.441 279.467C835.578 294.441 853.807 301.928 875.129 301.928ZM1369.61 100.023C1392.72 100.023 1413.8 105.72 1432.84 117.113C1452.05 128.507 1467.27 143.725 1478.5 162.768C1489.89 181.811 1495.59 202.888 1495.59 226V350.756H1446.76V226C1446.76 204.841 1439.19 186.693 1424.05 171.557C1409.08 156.42 1390.93 148.852 1369.61 148.852C1348.94 148.852 1331.28 155.932 1316.63 170.092C1301.98 184.089 1294.01 201.586 1292.71 222.582C1292.71 223.721 1292.71 224.861 1292.71 226H1292.46V350.756H1243.63V226C1243.63 224.861 1243.63 223.721 1243.63 222.582C1242.33 201.586 1234.36 184.089 1219.71 170.092C1205.06 155.932 1187.4 148.852 1166.73 148.852C1145.41 148.852 1127.18 156.42 1112.04 171.557C1097.07 186.693 1089.58 204.841 1089.58 226V350.756H1040.75V226C1040.75 202.888 1046.37 181.811 1057.6 162.768C1068.99 143.725 1084.21 128.507 1103.25 117.113C1122.3 105.72 1143.46 100.023 1166.73 100.023C1187.56 100.023 1206.77 104.662 1224.35 113.939C1241.93 123.217 1256.49 135.749 1268.05 151.537C1279.77 135.749 1294.42 123.217 1311.99 113.939C1329.57 104.662 1348.78 100.023 1369.61 100.023ZM1584.31 224.779C1584.31 246.101 1591.8 264.33 1606.77 279.467C1621.91 294.441 1640.14 301.928 1661.46 301.928V350.756C1638.18 350.756 1617.02 345.141 1597.98 333.91C1578.94 322.517 1563.72 307.299 1552.33 288.256C1541.1 269.05 1535.48 247.891 1535.48 224.779H1584.31ZM1584.31 0.169922V224.779H1535.48V0.169922H1584.31ZM1701.11 351.244V100.023H1749.93V351.244H1701.11ZM1701.11 47.5332V1.14648H1749.93V47.5332H1701.11ZM49.1523 814.779C49.1523 836.101 56.6393 854.33 71.6133 869.467C86.75 884.441 104.979 891.928 126.301 891.928V940.756C103.026 940.756 81.8672 935.141 62.8242 923.91C43.7812 912.517 28.5632 897.299 17.1699 878.256C5.93945 859.05 0.324219 837.891 0.324219 814.779H49.1523ZM49.1523 590.17V814.779H0.324219V590.17H49.1523ZM279.719 688.803C302.668 688.803 323.664 694.418 342.707 705.648C361.75 716.879 376.887 731.934 388.117 750.814C399.348 769.532 405.207 790.528 405.695 813.803V941.244H356.867V914.389C346.125 922.689 334.162 929.2 320.979 933.92C307.958 938.477 294.204 940.756 279.719 940.756C256.607 940.756 235.448 935.141 216.242 923.91C197.199 912.517 181.981 897.299 170.588 878.256C159.357 859.213 153.742 838.054 153.742 814.779C153.742 791.667 159.357 770.59 170.588 751.547C181.981 732.504 197.199 717.286 216.242 705.893C235.448 694.499 256.607 688.803 279.719 688.803ZM279.719 891.928C301.04 891.928 319.188 884.441 334.162 869.467C349.299 854.33 356.867 836.101 356.867 814.779C356.867 793.62 349.299 775.473 334.162 760.336C319.188 745.199 301.04 737.631 279.719 737.631C258.397 737.631 240.168 745.199 225.031 760.336C210.057 775.473 202.57 793.62 202.57 814.779C202.57 836.101 210.057 854.33 225.031 869.467C240.168 884.441 258.397 891.928 279.719 891.928ZM571.32 688.803C594.595 688.803 615.754 694.499 634.797 705.893C653.84 717.123 668.977 732.341 680.207 751.547C691.6 770.59 697.297 791.667 697.297 814.779C697.297 837.891 691.6 859.05 680.207 878.256C668.977 897.299 653.84 912.517 634.797 923.91C615.754 935.141 594.595 940.756 571.32 940.756C548.371 940.756 527.375 935.141 508.332 923.91C489.289 912.68 474.152 897.706 462.922 878.988C451.691 860.108 445.832 839.031 445.344 815.756V590.17H494.172V715.414C504.914 706.951 516.796 700.44 529.816 695.883C543 691.163 556.835 688.803 571.32 688.803ZM571.32 891.928C592.642 891.928 610.79 884.441 625.764 869.467C640.9 854.33 648.469 836.101 648.469 814.779C648.469 793.458 640.9 775.31 625.764 760.336C610.79 745.199 592.642 737.631 571.32 737.631C550.161 737.631 532.014 745.199 516.877 760.336C501.74 775.31 494.172 793.458 494.172 814.779C494.172 836.101 501.74 854.33 516.877 869.467C532.014 884.441 550.161 891.928 571.32 891.928ZM862.922 688.803C886.197 688.803 907.355 694.499 926.398 705.893C945.441 717.123 960.578 732.341 971.809 751.547C983.202 770.59 988.898 791.667 988.898 814.779C988.898 837.891 983.202 859.05 971.809 878.256C960.578 897.299 945.441 912.517 926.398 923.91C907.355 935.141 886.197 940.756 862.922 940.756C839.81 940.756 818.732 935.141 799.689 923.91C780.646 912.517 765.428 897.299 754.035 878.256C742.642 859.05 736.945 837.891 736.945 814.779C736.945 791.667 742.642 770.59 754.035 751.547C765.428 732.341 780.646 717.123 799.689 705.893C818.732 694.499 839.81 688.803 862.922 688.803ZM862.922 891.928C884.243 891.928 902.391 884.441 917.365 869.467C932.502 854.33 940.07 836.101 940.07 814.779C940.07 793.458 932.502 775.31 917.365 760.336C902.391 745.199 884.243 737.631 862.922 737.631C841.763 737.631 823.615 745.199 808.479 760.336C793.342 775.31 785.773 793.458 785.773 814.779C785.773 836.101 793.342 854.33 808.479 869.467C823.615 884.441 841.763 891.928 862.922 891.928ZM1028.55 816C1028.55 792.888 1034.24 771.811 1045.64 752.768C1057.03 733.725 1072.25 718.507 1091.29 707.113C1110.33 695.72 1131.41 690.023 1154.52 690.023V738.852C1133.36 738.852 1115.22 746.42 1100.08 761.557C1084.94 776.693 1077.38 794.841 1077.38 816V940.756H1028.55V816ZM1320.15 688.803C1343.1 688.803 1364.09 694.418 1383.14 705.648C1402.18 716.879 1417.32 731.934 1428.55 750.814C1439.78 769.532 1445.64 790.528 1446.12 813.803V941.244H1397.3V914.389C1386.55 922.689 1374.59 929.2 1361.41 933.92C1348.39 938.477 1334.63 940.756 1320.15 940.756C1297.04 940.756 1275.88 935.141 1256.67 923.91C1237.63 912.517 1222.41 897.299 1211.02 878.256C1199.79 859.213 1194.17 838.054 1194.17 814.779C1194.17 791.667 1199.79 770.59 1211.02 751.547C1222.41 732.504 1237.63 717.286 1256.67 705.893C1275.88 694.499 1297.04 688.803 1320.15 688.803ZM1320.15 891.928C1341.47 891.928 1359.62 884.441 1374.59 869.467C1389.73 854.33 1397.3 836.101 1397.3 814.779C1397.3 793.62 1389.73 775.473 1374.59 760.336C1359.62 745.199 1341.47 737.631 1320.15 737.631C1298.83 737.631 1280.6 745.199 1265.46 760.336C1250.49 775.473 1243 793.62 1243 814.779C1243 836.101 1250.49 854.33 1265.46 869.467C1280.6 884.441 1298.83 891.928 1320.15 891.928ZM1534.6 814.779C1534.6 836.101 1542.09 854.33 1557.06 869.467C1572.2 884.441 1590.43 891.928 1611.75 891.928V940.756C1588.48 940.756 1567.32 935.141 1548.27 923.91C1529.23 912.517 1514.01 897.299 1502.62 878.256C1491.39 859.05 1485.77 837.891 1485.77 814.779H1534.6ZM1534.6 739.096V814.779H1485.77V590.17H1534.6V690.268H1581.72V739.096H1534.6ZM1777.38 688.803C1800.65 688.803 1821.81 694.499 1840.85 705.893C1859.89 717.123 1875.03 732.341 1886.26 751.547C1897.65 770.59 1903.35 791.667 1903.35 814.779C1903.35 837.891 1897.65 859.05 1886.26 878.256C1875.03 897.299 1859.89 912.517 1840.85 923.91C1821.81 935.141 1800.65 940.756 1777.38 940.756C1754.26 940.756 1733.19 935.141 1714.14 923.91C1695.1 912.517 1679.88 897.299 1668.49 878.256C1657.1 859.05 1651.4 837.891 1651.4 814.779C1651.4 791.667 1657.1 770.59 1668.49 751.547C1679.88 732.341 1695.1 717.123 1714.14 705.893C1733.19 694.499 1754.26 688.803 1777.38 688.803ZM1777.38 891.928C1798.7 891.928 1816.84 884.441 1831.82 869.467C1846.96 854.33 1854.52 836.101 1854.52 814.779C1854.52 793.458 1846.96 775.31 1831.82 760.336C1816.84 745.199 1798.7 737.631 1777.38 737.631C1756.22 737.631 1738.07 745.199 1722.93 760.336C1707.79 775.31 1700.23 793.458 1700.23 814.779C1700.23 836.101 1707.79 854.33 1722.93 869.467C1738.07 884.441 1756.22 891.928 1777.38 891.928ZM1943 816C1943 792.888 1948.7 771.811 1960.09 752.768C1971.48 733.725 1986.7 718.507 2005.74 707.113C2024.79 695.72 2045.86 690.023 2068.98 690.023V738.852C2047.82 738.852 2029.67 746.42 2014.53 761.557C1999.4 776.693 1991.83 794.841 1991.83 816V940.756H1943V816ZM2108.62 941.244V690.023H2157.45V941.244H2108.62ZM2108.62 637.533V591.146H2157.45V637.533H2108.62ZM2449.05 690.023V690.268V815.023V914.389H2448.81C2448.49 937.826 2442.71 958.985 2431.48 977.865C2420.41 996.908 2405.27 1012.04 2386.07 1023.28C2367.02 1034.67 2345.95 1040.37 2322.83 1040.37V991.537C2344.16 991.537 2362.3 983.969 2377.28 968.832C2392.41 953.858 2399.98 935.71 2399.98 914.389H2400.23C2389.48 922.689 2377.52 929.2 2364.34 933.92C2351.32 938.477 2337.56 940.756 2323.08 940.756C2299.8 940.756 2278.64 935.141 2259.6 923.91C2240.56 912.517 2225.34 897.299 2213.95 878.256C2202.72 859.05 2197.1 837.891 2197.1 814.779V690.023H2245.93V814.779C2245.93 836.101 2253.42 854.33 2268.39 869.467C2283.53 884.441 2301.76 891.928 2323.08 891.928C2344.24 891.928 2362.38 884.441 2377.52 869.467C2392.66 854.33 2400.23 836.101 2400.23 814.779V690.023H2449.05ZM2614.68 688.803C2637.63 688.803 2658.62 694.418 2677.67 705.648C2696.71 716.879 2711.85 731.934 2723.08 750.814C2734.31 769.532 2740.17 790.528 2740.66 813.803V941.244H2691.83V914.389C2681.09 922.689 2669.12 929.2 2655.94 933.92C2642.92 938.477 2629.17 940.756 2614.68 940.756C2591.57 940.756 2570.41 935.141 2551.2 923.91C2532.16 912.517 2516.94 897.299 2505.55 878.256C2494.32 859.213 2488.7 838.054 2488.7 814.779C2488.7 791.667 2494.32 770.59 2505.55 751.547C2516.94 732.504 2532.16 717.286 2551.2 705.893C2570.41 694.499 2591.57 688.803 2614.68 688.803ZM2614.68 891.928C2636 891.928 2654.15 884.441 2669.12 869.467C2684.26 854.33 2691.83 836.101 2691.83 814.779C2691.83 793.62 2684.26 775.473 2669.12 760.336C2654.15 745.199 2636 737.631 2614.68 737.631C2593.36 737.631 2575.13 745.199 2559.99 760.336C2545.02 775.473 2537.53 793.62 2537.53 814.779C2537.53 836.101 2545.02 854.33 2559.99 869.467C2575.13 884.441 2593.36 891.928 2614.68 891.928Z" fill="white"/>
</svg>
