<svg width="24" height="24" viewBox="0 0 24 24" fill="none" xmlns="http://www.w3.org/2000/svg">
<g clip-path="url(#clip0_1724_82)">
<path d="M22.4132 11.6862C20.1665 7.53286 16.2265 5.01953 11.8665 5.01953C7.50648 5.01953 3.55982 7.53286 1.33315 11.6862L1.14648 11.9995L1.31982 12.3195C3.56648 16.4729 7.50648 18.9862 11.8665 18.9862C16.2265 18.9862 20.1732 16.5062 22.4132 12.3195L22.5865 11.9995L22.4132 11.6862ZM11.8665 17.6195C8.11315 17.6195 4.66648 15.5262 2.66648 11.9995C4.66648 8.47286 8.11315 6.37953 11.8665 6.37953C15.6198 6.37953 19.0265 8.47953 21.0598 11.9995C19.0265 15.5262 15.6132 17.6195 11.8665 17.6195Z" fill="#2D9CCA"/>
<path d="M12.0597 16.593C14.5854 16.593 16.633 14.5454 16.633 12.0196C16.633 9.49384 14.5854 7.44629 12.0597 7.44629C9.53388 7.44629 7.48633 9.49384 7.48633 12.0196C7.48633 14.5454 9.53388 16.593 12.0597 16.593Z" fill="#2D9CCA"/>
</g>
<defs>
<clipPath id="clip0_1724_82">
<rect width="24" height="24" fill="white"/>
</clipPath>
</defs>
</svg>
